<?xml version="1.0" encoding="UTF-8" standalone="no"?><svg xmlns="http://www.w3.org/2000/svg" xmlns:xlink="http://www.w3.org/1999/xlink" contentScriptType="application/ecmascript" contentStyleType="text/css" height="251px" preserveAspectRatio="none" style="width:354px;height:251px;" version="1.1" viewBox="0 0 354 251" width="354px" zoomAndPan="magnify"><defs><filter height="300%" id="fen7u6no6keyh" width="300%" x="-1" y="-1"><feGaussianBlur result="blurOut" stdDeviation="2.0"/><feColorMatrix in="blurOut" result="blurOut2" type="matrix" values="0 0 0 0 0 0 0 0 0 0 0 0 0 0 0 0 0 0 .4 0"/><feOffset dx="4.0" dy="4.0" in="blurOut2" result="blurOut3"/><feBlend in="SourceGraphic" in2="blurOut3" mode="normal"/></filter></defs><g><line style="stroke: #A80036; stroke-width: 1.0; stroke-dasharray: 5.0,5.0;" x1="32" x2="32" y1="86.0986" y2="163.9961"/><line style="stroke: #A80036; stroke-width: 1.0; stroke-dasharray: 5.0,5.0;" x1="324" x2="324" y1="86.0986" y2="163.9961"/><text fill="#000000" font-family="sans-serif" font-size="14" lengthAdjust="spacingAndGlyphs" textLength="42" x="8" y="83.1318">浏览器</text><ellipse cx="32" cy="13" fill="#FEFECE" filter="url(#fen7u6no6keyh)" rx="8" ry="8" style="stroke: #A80036; stroke-width: 2.0;"/><path d="M32,21 L32,48 M19,29 L45,29 M32,48 L19,63 M32,48 L45,63 " fill="none" filter="url(#fen7u6no6keyh)" style="stroke: #A80036; stroke-width: 2.0;"/><text fill="#000000" font-family="sans-serif" font-size="14" lengthAdjust="spacingAndGlyphs" textLength="42" x="8" y="176.1279">浏览器</text><ellipse cx="32" cy="189.0947" fill="#FEFECE" filter="url(#fen7u6no6keyh)" rx="8" ry="8" style="stroke: #A80036; stroke-width: 2.0;"/><path d="M32,197.0947 L32,224.0947 M19,205.0947 L45,205.0947 M32,224.0947 L19,239.0947 M32,224.0947 L45,239.0947 " fill="none" filter="url(#fen7u6no6keyh)" style="stroke: #A80036; stroke-width: 2.0;"/><text fill="#000000" font-family="sans-serif" font-size="14" lengthAdjust="spacingAndGlyphs" textLength="42" x="300" y="83.1318">服务器</text><path d="M306,34 C306,24 324,24 324,24 C324,24 342,24 342,34 L342,60 C342,70 324,70 324,70 C324,70 306,70 306,60 L306,34 " fill="#FEFECE" filter="url(#fen7u6no6keyh)" style="stroke: #000000; stroke-width: 1.5;"/><path d="M306,34 C306,44 324,44 324,44 C324,44 342,44 342,34 " fill="none" style="stroke: #000000; stroke-width: 1.5;"/><text fill="#000000" font-family="sans-serif" font-size="14" lengthAdjust="spacingAndGlyphs" textLength="42" x="300" y="176.1279">服务器</text><path d="M306,189.0947 C306,179.0947 324,179.0947 324,179.0947 C324,179.0947 342,179.0947 342,189.0947 L342,215.0947 C342,225.0947 324,225.0947 324,225.0947 C324,225.0947 306,225.0947 306,215.0947 L306,189.0947 " fill="#FEFECE" filter="url(#fen7u6no6keyh)" style="stroke: #000000; stroke-width: 1.5;"/><path d="M306,189.0947 C306,199.0947 324,199.0947 324,199.0947 C324,199.0947 342,199.0947 342,189.0947 " fill="none" style="stroke: #000000; stroke-width: 1.5;"/><polygon fill="#A80036" points="312,113.0474,322,117.0474,312,121.0474,316,117.0474" style="stroke: #A80036; stroke-width: 1.0;"/><line style="stroke: #A80036; stroke-width: 1.0;" x1="32" x2="318" y1="117.0474" y2="117.0474"/><text fill="#000000" font-family="sans-serif" font-size="13" font-weight="bold" lengthAdjust="spacingAndGlyphs" textLength="8" x="39" y="112.2925">1</text><text fill="#000000" font-family="sans-serif" font-size="13" lengthAdjust="spacingAndGlyphs" textLength="256" x="51" y="112.2925">我们来加密连接吧，用字母位移加密，n 是 5</text><polygon fill="#A80036" points="43,141.9961,33,145.9961,43,149.9961,39,145.9961" style="stroke: #A80036; stroke-width: 1.0;"/><line style="stroke: #A80036; stroke-width: 1.0;" x1="37" x2="323" y1="145.9961" y2="145.9961"/><text fill="#000000" font-family="sans-serif" font-size="13" font-weight="bold" lengthAdjust="spacingAndGlyphs" textLength="8" x="49" y="141.2412">2</text><text fill="#000000" font-family="sans-serif" font-size="13" lengthAdjust="spacingAndGlyphs" textLength="240" x="61" y="141.2412">OK，之后的数据我都加密后再返回给你。</text><!--
@startuml

autonumber

actor "浏览器" as user
database "服务器" as server

user -> server: 我们来加密连接吧，用字母位移加密，n 是 5
server -> user: OK，之后的数据我都加密后再返回给你。

@enduml

PlantUML version 1.2019.03(Sun Mar 10 19:04:44 CST 2019)
(GPL source distribution)
Java Runtime: OpenJDK Runtime Environment
JVM: OpenJDK 64-Bit Server VM
Java Version: 1.8.0_161-b14
Operating System: Linux
OS Version: 3.10.0-327.22.2.el7.x86_64
Default Encoding: UTF-8
Language: en
Country: US
--></g></svg>